<?xml version="1.0" encoding="UTF-8"?>
<svg version="1.1" xmlns="http://www.w3.org/2000/svg" width="157" height="157">
<path d="M0 0 C1.01334663 -0.00744736 1.01334663 -0.00744736 2.04716492 -0.01504517 C4.27217651 -0.02959381 6.4971167 -0.03645822 8.72216797 -0.04199219 C9.86966333 -0.04623325 9.86966333 -0.04623325 11.04034042 -0.05056 C15.09248955 -0.06552683 19.14460333 -0.0747708 23.19677734 -0.07910156 C27.35573598 -0.08456788 31.5143642 -0.10856389 35.67321968 -0.13707352 C38.89398092 -0.15582414 42.11466474 -0.16091216 45.33547592 -0.16243744 C46.86708243 -0.16543895 48.39868842 -0.17338145 49.93024063 -0.18662262 C61.84258632 -0.28222176 72.0813993 0.70682391 82.27685547 7.22363281 C83.38416016 7.91585938 84.49146484 8.60808594 85.63232422 9.32128906 C86.84855469 10.23201172 86.84855469 10.23201172 88.08935547 11.16113281 C88.08935547 11.82113281 88.08935547 12.48113281 88.08935547 13.16113281 C88.74935547 13.16113281 89.40935547 13.16113281 90.08935547 13.16113281 C99.97310575 23.76334824 105.53669512 37.06922742 105.30810547 51.72753906 C104.52321135 60.45948608 102.49750093 68.5846328 98.08935547 76.16113281 C97.28498047 77.64613281 97.28498047 77.64613281 96.46435547 79.16113281 C96.01060547 79.82113281 95.55685547 80.48113281 95.08935547 81.16113281 C94.42935547 81.16113281 93.76935547 81.16113281 93.08935547 81.16113281 C92.84185547 81.75023438 92.59435547 82.33933594 92.33935547 82.94628906 C87.90585246 90.8019022 77.04373994 95.58350424 68.79101562 98.21142578 C62.67754251 99.70077755 56.4649978 99.41975684 50.21044922 99.39941406 C48.87100956 99.40544472 47.53157619 99.41305672 46.19215393 99.42216492 C40.54140397 99.45902263 34.89085753 99.47782934 29.23999023 99.46655273 C25.76803091 99.46067815 22.29688397 99.47906325 18.82509041 99.51244164 C16.87596727 99.52417025 14.92674165 99.50911118 12.97764587 99.4934845 C5.57346172 99.57520095 1.65788554 100.20799683 -3.91064453 105.16113281 C-4.57064453 105.16113281 -5.23064453 105.16113281 -5.91064453 105.16113281 C-5.91064453 105.82113281 -5.91064453 106.48113281 -5.91064453 107.16113281 C-7.31591797 108.27441406 -7.31591797 108.27441406 -9.27001953 109.47363281 C-9.97384766 109.90933594 -10.67767578 110.34503906 -11.40283203 110.79394531 C-12.14791016 111.24511719 -12.89298828 111.69628906 -13.66064453 112.16113281 C-14.39025391 112.61230469 -15.11986328 113.06347656 -15.87158203 113.52832031 C-25.19598049 119.258587 -25.19598049 119.258587 -28.66064453 118.78613281 C-29.40314453 118.57988281 -30.14564453 118.37363281 -30.91064453 118.16113281 C-30.93840532 115.78604339 -30.95801771 113.4113136 -30.97314453 111.03613281 C-30.98152344 110.31417725 -30.98990234 109.59222168 -30.99853516 108.84838867 C-31.01957509 104.04339412 -30.57242925 99.4916093 -29.91064453 94.72363281 C-29.56086642 90.74433903 -29.49961577 88.85236407 -31.55517578 85.39550781 C-33.56563979 83.14958405 -35.66550945 81.16714108 -37.91064453 79.16113281 C-39.91064453 76.16113281 -39.91064453 76.16113281 -39.91064453 73.16113281 C-40.57064453 73.16113281 -41.23064453 73.16113281 -41.91064453 73.16113281 C-47.65944576 61.2272374 -48.55471507 44.40472264 -44.28564453 31.84863281 C-43.19189453 29.46582031 -43.19189453 29.46582031 -41.91064453 27.16113281 C-41.40533203 26.21496094 -40.90001953 25.26878906 -40.37939453 24.29394531 C-37.6237551 19.41754416 -37.6237551 19.41754416 -35.91064453 17.16113281 C-35.25064453 17.16113281 -34.59064453 17.16113281 -33.91064453 17.16113281 C-33.68376953 16.58363281 -33.45689453 16.00613281 -33.22314453 15.41113281 C-31.56216231 12.56373472 -29.59539892 11.04046088 -26.91064453 9.16113281 C-26.25064453 9.16113281 -25.59064453 9.16113281 -24.91064453 9.16113281 C-24.91064453 8.50113281 -24.91064453 7.84113281 -24.91064453 7.16113281 C-22.85136497 6.17521127 -20.78807765 5.19765787 -18.72314453 4.22363281 C-17.57458984 3.67835937 -16.42603516 3.13308594 -15.24267578 2.57128906 C-10.07681862 0.38503533 -5.58983023 0.03136118 0 0 Z M-13.84814453 44.91113281 C-15.46084216 48.3262572 -14.87176655 50.57294396 -13.91064453 54.16113281 C-11.72304989 57.35838651 -10.24532716 58.05576976 -6.53564453 59.22363281 C-2.77948769 59.44649345 -2.77948769 59.44649345 0.52685547 57.22363281 C3.36050935 53.83707086 3.94828843 52.37303619 3.61669922 48.09472656 C2.70707034 44.75942067 0.786126 43.18371071 -1.91064453 41.16113281 C-6.45452823 38.81590252 -10.39685744 41.79384124 -13.84814453 44.91113281 Z M22.08935547 43.16113281 C20.18994671 46.08938799 20.07239525 47.74560736 20.21435547 51.22363281 C21.24645274 54.6885308 22.17582715 56.03504458 25.08935547 58.16113281 C28.74719366 59.32852798 30.34797371 59.51497411 33.83935547 57.84863281 C36.13502278 56.2097464 36.13502278 56.2097464 38.08935547 54.16113281 C38.79035964 48.21925662 38.79035964 48.21925662 35.83935547 43.22363281 C30.51104071 39.22739674 27.99825379 39.87841152 22.08935547 43.16113281 Z M55.87841797 45.30957031 C54.6734532 48.13706191 54.70827504 50.33466676 55.31591797 53.32128906 C56.7310556 56.68760131 58.84259173 57.75215987 62.08935547 59.16113281 C65.69961884 59.16113281 67.45697623 58.60550741 70.40185547 56.53613281 C72.7203859 53.27301591 73.15835958 51.16337116 73.08935547 47.16113281 C71.23735258 43.87532124 69.88951717 41.70081912 66.14794922 40.57910156 C61.51484706 40.20106856 58.66222282 41.31376879 55.87841797 45.30957031 Z " fill="#D63326" transform="translate(48.91064453125,19.8388671875)"/>
<path d="M0 0 C0.66 0.33 1.32 0.66 2 1 C1.49396008 3.16874252 1.00016187 4.99967627 0 7 C-0.66 7 -1.32 7 -2 7 C-2 7.99 -2 8.98 -2 10 C-2.66 10 -3.32 10 -4 10 C-4 11.65 -4 13.3 -4 15 C-4.66 15 -5.32 15 -6 15 C-5.67 18.3 -5.34 21.6 -5 25 C-5.66 25 -6.32 25 -7 25 C-7.33 29.95 -7.66 34.9 -8 40 C-7.01 40 -6.02 40 -5 40 C-5 41.32 -5 42.64 -5 44 C-6.65 44 -8.3 44 -10 44 C-10.83123744 18.63766693 -10.83123744 18.63766693 -6 10 C-5.47148438 9.05382813 -4.94296875 8.10765625 -4.3984375 7.1328125 C-2.9854053 4.71525504 -1.5270836 2.34661846 0 0 Z " fill="#CB493B" transform="translate(13,37)"/>
<path d="M0 0 C2 1 2 1 4 3 C4.36933645 5.75372909 4.18336678 8.20365661 4 11 C3.01 10.67 2.02 10.34 1 10 C1 12.64 1 15.28 1 18 C0.34 18 -0.32 18 -1 18 C-1 1 -1 1 0 0 Z " fill="#D0483D" transform="translate(20,104)"/>
<path d="M0 0 C2 3 2 3 2.3125 5.5625 C2.76094157 8.16348374 2.76094157 8.16348374 5.0625 9.375 C9.00574968 10.21398929 12.03032383 9.67282647 16 9 C16 9.66 16 10.32 16 11 C14.04310963 11.36205464 12.08442332 11.71441421 10.125 12.0625 C8.48917969 12.35833984 8.48917969 12.35833984 6.8203125 12.66015625 C4 13 4 13 2 12 C-1.10791367 6.01438849 -1.10791367 6.01438849 -0.6875 2.0625 C-0.460625 1.381875 -0.23375 0.70125 0 0 Z " fill="#D2635C" transform="translate(68,68)"/>
<path d="M0 0 C0.66 0.33 1.32 0.66 2 1 C1.49396008 3.16874252 1.00016187 4.99967627 0 7 C-0.66 7 -1.32 7 -2 7 C-2 7.99 -2 8.98 -2 10 C-2.66 10 -3.32 10 -4 10 C-4 11.65 -4 13.3 -4 15 C-4.66 15 -5.32 15 -6 15 C-6.66 16.98 -7.32 18.96 -8 21 C-9.42052365 16.73842905 -7.83004339 13.88721983 -6 10 C-4.09656621 6.60377169 -2.08258343 3.28899908 0 0 Z " fill="#CD6056" transform="translate(13,37)"/>
<path d="M0 0 C0.33 0 0.66 0 1 0 C1 4.95 1 9.9 1 15 C2.65 15 4.3 15 6 15 C6 13.35 6 11.7 6 10 C6.99 10 7.98 10 9 10 C8.34 11.32 7.68 12.64 7 14 C7.66 14.33 8.32 14.66 9 15 C5.28732913 17.33760758 4.80554252 16.9611085 0 16 C0 10.72 0 5.44 0 0 Z " fill="#E1897E" transform="translate(18,122)"/>
<path d="M0 0 C2 0.3125 2 0.3125 4 1 C5.4783226 3.95664519 5.06032783 6.74229737 5 10 C-0.73529412 4.70588235 -0.73529412 4.70588235 -1 1 C-0.67 0.67 -0.34 0.34 0 0 Z " fill="#CF4B43" transform="translate(12,95)"/>
<path d="M0 0 C2.64 0 5.28 0 8 0 C7.34 3.63 6.68 7.26 6 11 C6.66 11.33 7.32 11.66 8 12 C7.67 12.66 7.34 13.32 7 14 C6.01 13.67 5.02 13.34 4 13 C4.03255208 11.01432292 4.06510417 9.02864583 4.09765625 7.04296875 C4.08263217 4.79694539 4.08263217 4.79694539 3 2 C2.01 1.67 1.02 1.34 0 1 C0 0.67 0 0.34 0 0 Z " fill="#D75F4F" transform="translate(47,61)"/>
<path d="M0 0 C0 0.99 0 1.98 0 3 C0.15127402 4.56406528 0.31902522 6.12659252 0.5 7.6875 C0.5928125 8.49574219 0.685625 9.30398437 0.78125 10.13671875 C0.8534375 10.75160156 0.925625 11.36648437 1 12 C3.475 12.99 3.475 12.99 6 14 C5.34 14.66 4.68 15.32 4 16 C3.01 16 2.02 16 1 16 C0.67 15.34 0.34 14.68 0 14 C-0.34804688 13.39671875 -0.69609375 12.7934375 -1.0546875 12.171875 C-2.13909238 9.68043239 -2.20445754 7.95155625 -2.125 5.25 C-2.10695312 4.45078125 -2.08890625 3.6515625 -2.0703125 2.828125 C-2.04710937 2.22484375 -2.02390625 1.6215625 -2 1 C-1.34 0.67 -0.68 0.34 0 0 Z " fill="#CC5852" transform="translate(35,64)"/>
<path d="M0 0 C0 0.66 0 1.32 0 2 C-0.99 2 -1.98 2 -3 2 C-3.33 2.99 -3.66 3.98 -4 5 C-4.66 5 -5.32 5 -6 5 C-6.33 6.32 -6.66 7.64 -7 9 C-8.98 9.33 -10.96 9.66 -13 10 C-10.34345343 6.26115668 -8.41889613 4.35021826 -4 3 C-4 2.34 -4 1.68 -4 1 C-2 0 -2 0 0 0 Z " fill="#D57166" transform="translate(28,26)"/>
<path d="M0 0 C2.475 0.99 2.475 0.99 5 2 C1.71195019 4.91227269 -0.59885603 6.49701212 -5 7 C-5 6.34 -5 5.68 -5 5 C-4.01 4.67 -3.02 4.34 -2 4 C-0.79117904 1.99983534 -0.79117904 1.99983534 0 0 Z " fill="#D24F48" transform="translate(30,129)"/>
<path d="M0 0 C1.98 0.99 1.98 0.99 4 2 C4 2.66 4 3.32 4 4 C4.66 4 5.32 4 6 4 C7.625 6.5 7.625 6.5 9 9 C8.34 9 7.68 9 7 9 C6.67 9.99 6.34 10.98 6 12 C5.67 11.01 5.34 10.02 5 9 C5.33 8.34 5.66 7.68 6 7 C5.01 6.67 4.02 6.34 3 6 C3 5.34 3 4.68 3 4 C2.34 4 1.68 4 1 4 C0.67 2.68 0.34 1.36 0 0 Z " fill="#D26158" transform="translate(133,29)"/>
<path d="M0 0 C0.33 0.99 0.66 1.98 1 3 C-0.6396875 3.2165625 -0.6396875 3.2165625 -2.3125 3.4375 C-5.93122987 3.88288104 -5.93122987 3.88288104 -9 5 C-6.81610567 0.16423399 -5.20641855 -0.13701101 0 0 Z " fill="#CF4E45" transform="translate(81,58)"/>
<path d="M0 0 C1.62418745 -0.08090971 3.24951745 -0.13914995 4.875 -0.1875 C5.77992187 -0.22230469 6.68484375 -0.25710937 7.6171875 -0.29296875 C8.79667969 -0.14794922 8.79667969 -0.14794922 10 0 C12 3 12 3 11.625 5.1875 C11.41875 5.785625 11.2125 6.38375 11 7 C10.484375 6.195625 9.96875 5.39125 9.4375 4.5625 C6.36794243 1.33552922 4.35131541 1.25103743 0 1 C0 0.67 0 0.34 0 0 Z " fill="#D86F6B" transform="translate(110,60)"/>
<path d="M0 0 C0.99 0 1.98 0 3 0 C3 1.32 3 2.64 3 4 C-0.63 3.67 -4.26 3.34 -8 3 C-4 1 -4 1 -2 1 C-2 1.66 -2 2.32 -2 3 C-1.34 3 -0.68 3 0 3 C0 2.01 0 1.02 0 0 Z " fill="#C92F21" transform="translate(43,21)"/>
<path d="M0 0 C1.4540625 0.0309375 1.4540625 0.0309375 2.9375 0.0625 C2.6075 1.3825 2.2775 2.7025 1.9375 4.0625 C0.6175 4.0625 -0.7025 4.0625 -2.0625 4.0625 C-2.0625 3.4025 -2.0625 2.7425 -2.0625 2.0625 C-2.7225 1.7325 -3.3825 1.4025 -4.0625 1.0625 C-3.0625 0.0625 -3.0625 0.0625 0 0 Z " fill="#CB3629" transform="translate(112.0625,78.9375)"/>
<path d="M0 0 C0.99 0 1.98 0 3 0 C2.42647107 3.87132028 0.51295648 6.08172796 -2 9 C-2.25 3.375 -2.25 3.375 0 0 Z " fill="#CD5F58" transform="translate(145,92)"/>
<path d="M0 0 C3 3.75 3 3.75 3 6 C3.66 6 4.32 6 5 6 C5 7.98 5 9.96 5 12 C4.34 12 3.68 12 3 12 C2.49440092 10.56445975 1.9957251 9.1264798 1.5 7.6875 C1.2215625 6.88699219 0.943125 6.08648437 0.65625 5.26171875 C0 3 0 3 0 0 Z " fill="#D16A62" transform="translate(4,81)"/>
<path d="M0 0 C1.98 0.495 1.98 0.495 4 1 C3.67 2.65 3.34 4.3 3 6 C1.68 6.33 0.36 6.66 -1 7 C-0.67 4.69 -0.34 2.38 0 0 Z " fill="#D95A4E" transform="translate(122,67)"/>
<path d="M0 0 C1.98 0.66 3.96 1.32 6 2 C4.35 3.65 2.7 5.3 1 7 C0 4 0 4 0 0 Z " fill="#CE564E" transform="translate(46,117)"/>
<path d="M0 0 C1.98 0 3.96 0 6 0 C0.85714286 4.42857143 0.85714286 4.42857143 -3 5 C-2.67 4.34 -2.34 3.68 -2 3 C-1.34 3 -0.68 3 0 3 C0 2.01 0 1.02 0 0 Z " fill="#D1726B" transform="translate(127,110)"/>
<path d="" fill="#FFFFFF" transform="translate(0,0)"/>
</svg>
